<svg width="21" height="21" viewBox="0 0 21 21" fill="none" xmlns="http://www.w3.org/2000/svg">
<path d="M17.0331 5.96167H3.40646C2.46573 5.96167 1.70312 6.72428 1.70312 7.665V16.1817C1.70312 17.1224 2.46573 17.885 3.40646 17.885H17.0331C17.9739 17.885 18.7365 17.1224 18.7365 16.1817V7.665C18.7365 6.72428 17.9739 5.96167 17.0331 5.96167Z" stroke="black" stroke-width="2" stroke-linecap="round" stroke-linejoin="round"/>
<path d="M13.6268 17.8849V4.25827C13.6268 3.80651 13.4474 3.37326 13.1279 3.05383C12.8085 2.73439 12.3752 2.55493 11.9235 2.55493H8.51681C8.06506 2.55493 7.63181 2.73439 7.31237 3.05383C6.99293 3.37326 6.81348 3.80651 6.81348 4.25827V17.8849" stroke="black" stroke-width="2" stroke-linecap="round" stroke-linejoin="round"/>
</svg>
