<svg width="22" height="21" viewBox="0 0 22 21" fill="none" xmlns="http://www.w3.org/2000/svg">
<path d="M19.4568 16.2636C19.4568 16.7154 19.2774 17.1487 18.9579 17.4682C18.6384 17.7877 18.2051 17.9672 17.7533 17.9672H4.12493C3.67312 17.9672 3.23982 17.7877 2.92034 17.4682C2.60087 17.1487 2.42139 16.7154 2.42139 16.2636V4.3388C2.42139 3.88699 2.60087 3.45369 2.92034 3.13421C3.23982 2.81473 3.67312 2.63525 4.12493 2.63525H8.3838L10.0873 5.19057H17.7533C18.2051 5.19057 18.6384 5.37005 18.9579 5.68953C19.2774 6.00901 19.4568 6.44231 19.4568 6.89412V16.2636Z" stroke="black" stroke-width="2" stroke-linecap="round" stroke-linejoin="round"/>
<path d="M8.38379 12.0046H13.4944" stroke="black" stroke-width="2" stroke-linecap="round" stroke-linejoin="round"/>
</svg>
