<svg width="21" height="21" viewBox="0 0 21 21" fill="none" xmlns="http://www.w3.org/2000/svg">
<g clip-path="url(#clip0_26_199)">
<path d="M10.6635 6.89408C14.8973 6.89408 18.3295 5.75003 18.3295 4.33877C18.3295 2.9275 14.8973 1.78345 10.6635 1.78345C6.42972 1.78345 2.99756 2.9275 2.99756 4.33877C2.99756 5.75003 6.42972 6.89408 10.6635 6.89408Z" stroke="black" stroke-width="2" stroke-linecap="round" stroke-linejoin="round"/>
<path d="M18.3295 10.301C18.3295 11.715 14.9224 12.8563 10.6635 12.8563C6.40465 12.8563 2.99756 11.715 2.99756 10.301" stroke="black" stroke-width="2" stroke-linecap="round" stroke-linejoin="round"/>
<path d="M2.99756 4.33862V16.2634C2.99756 17.6774 6.40465 18.8188 10.6635 18.8188C14.9224 18.8188 18.3295 17.6774 18.3295 16.2634V4.33862" stroke="black" stroke-width="2" stroke-linecap="round" stroke-linejoin="round"/>
</g>
<defs>
<clipPath id="clip0_26_199">
<rect width="20.4425" height="20.4425" fill="white" transform="translate(0.442383 0.079834)"/>
</clipPath>
</defs>
</svg>
