<svg width="26" height="26" viewBox="0 0 26 26" fill="none" xmlns="http://www.w3.org/2000/svg">
<path d="M17.3334 4.33337H19.5C20.0747 4.33337 20.6258 4.56165 21.0321 4.96798C21.4384 5.3743 21.6667 5.9254 21.6667 6.50004V21.6667C21.6667 22.2413 21.4384 22.7924 21.0321 23.1988C20.6258 23.6051 20.0747 23.8334 19.5 23.8334H6.50004C5.9254 23.8334 5.3743 23.6051 4.96798 23.1988C4.56165 22.7924 4.33337 22.2413 4.33337 21.6667V6.50004C4.33337 5.9254 4.56165 5.3743 4.96798 4.96798C5.3743 4.56165 5.9254 4.33337 6.50004 4.33337H8.66671" stroke="black" stroke-width="2" stroke-linecap="round" stroke-linejoin="round"/>
<path d="M16.25 2.16663H9.74996C9.15165 2.16663 8.66663 2.65165 8.66663 3.24996V5.41663C8.66663 6.01493 9.15165 6.49996 9.74996 6.49996H16.25C16.8483 6.49996 17.3333 6.01493 17.3333 5.41663V3.24996C17.3333 2.65165 16.8483 2.16663 16.25 2.16663Z" stroke="black" stroke-width="2" stroke-linecap="round" stroke-linejoin="round"/>
</svg>
