<svg width="26" height="27" viewBox="0 0 26 27" fill="none" xmlns="http://www.w3.org/2000/svg">
<g clip-path="url(#clip0_21_375)">
<path d="M13 16.875C14.7949 16.875 16.25 15.364 16.25 13.5C16.25 11.636 14.7949 10.125 13 10.125C11.2051 10.125 9.75 11.636 9.75 13.5C9.75 15.364 11.2051 16.875 13 16.875Z" stroke="black" stroke-width="2" stroke-linecap="round" stroke-linejoin="round"/>
<path d="M21.0167 16.875C20.8725 17.2143 20.8295 17.5907 20.8932 17.9557C20.9569 18.3206 21.1245 18.6574 21.3742 18.9225L21.4392 18.99C21.6407 19.199 21.8005 19.4471 21.9095 19.7203C22.0185 19.9934 22.0747 20.2862 22.0747 20.5819C22.0747 20.8776 22.0185 21.1703 21.9095 21.4435C21.8005 21.7166 21.6407 21.9648 21.4392 22.1737C21.238 22.3829 20.999 22.5489 20.736 22.6621C20.473 22.7754 20.191 22.8336 19.9063 22.8336C19.6216 22.8336 19.3396 22.7754 19.0766 22.6621C18.8136 22.5489 18.5746 22.3829 18.3734 22.1737L18.3084 22.1062C18.0531 21.8469 17.7288 21.6729 17.3773 21.6067C17.0259 21.5406 16.6635 21.5852 16.3367 21.735C16.0163 21.8776 15.743 22.1144 15.5505 22.4162C15.3581 22.7181 15.2548 23.0717 15.2534 23.4337V23.625C15.2534 24.2217 15.0251 24.794 14.6188 25.216C14.2124 25.6379 13.6613 25.875 13.0867 25.875C12.5121 25.875 11.961 25.6379 11.5546 25.216C11.1483 24.794 10.92 24.2217 10.92 23.625V23.5237C10.9117 23.1514 10.7956 22.7902 10.5869 22.4873C10.3783 22.1843 10.0867 21.9536 9.75004 21.825C9.42329 21.6752 9.06083 21.6306 8.7094 21.6967C8.35797 21.7629 8.03369 21.9369 7.77837 22.1962L7.71337 22.2638C7.51215 22.4729 7.27319 22.6389 7.01016 22.7521C6.74713 22.8654 6.46519 22.9236 6.18046 22.9236C5.89572 22.9236 5.61378 22.8654 5.35075 22.7521C5.08772 22.6389 4.84877 22.4729 4.64754 22.2638C4.44609 22.0548 4.28628 21.8066 4.17724 21.5335C4.06821 21.2603 4.01209 20.9676 4.01209 20.6719C4.01209 20.3762 4.06821 20.0834 4.17724 19.8103C4.28628 19.5371 4.44609 19.289 4.64754 19.08L4.71254 19.0125C4.96229 18.7474 5.12982 18.4106 5.19355 18.0457C5.25727 17.6807 5.21425 17.3043 5.07004 16.965C4.93271 16.6323 4.70469 16.3485 4.41404 16.1486C4.1234 15.9487 3.78281 15.8414 3.43421 15.84H3.25004C2.6754 15.84 2.1243 15.6029 1.71798 15.181C1.31165 14.759 1.08337 14.1867 1.08337 13.59C1.08337 12.9933 1.31165 12.421 1.71798 11.999C2.1243 11.5771 2.6754 11.34 3.25004 11.34H3.34754C3.70612 11.3313 4.05388 11.2108 4.34561 10.9941C4.63735 10.7774 4.85957 10.4746 4.98337 10.125C5.12758 9.78568 5.1706 9.40928 5.10688 9.04434C5.04316 8.67939 4.87562 8.34264 4.62587 8.0775L4.56087 8.01C4.35942 7.80104 4.19961 7.55289 4.09058 7.27974C3.98154 7.00659 3.92542 6.71381 3.92542 6.41812C3.92542 6.12244 3.98154 5.82965 4.09058 5.55651C4.19961 5.28336 4.35942 5.03521 4.56087 4.82625C4.7621 4.61705 5.00106 4.4511 5.26409 4.33787C5.52712 4.22464 5.80906 4.16635 6.09379 4.16635C6.37852 4.16635 6.66047 4.22464 6.92349 4.33787C7.18652 4.4511 7.42548 4.61705 7.62671 4.82625L7.69171 4.89375C7.94703 5.1531 8.27131 5.32708 8.62274 5.39325C8.97416 5.45943 9.33662 5.41475 9.66337 5.265H9.75004C10.0705 5.12239 10.3437 4.8856 10.5362 4.58377C10.7287 4.28195 10.832 3.92826 10.8334 3.56625V3.375C10.8334 2.77826 11.0616 2.20597 11.468 1.78401C11.8743 1.36205 12.4254 1.125 13 1.125C13.5747 1.125 14.1258 1.36205 14.5321 1.78401C14.9384 2.20597 15.1667 2.77826 15.1667 3.375V3.47625C15.1681 3.83826 15.2714 4.19195 15.4639 4.49377C15.6564 4.7956 15.9296 5.03239 16.25 5.175C16.5768 5.32475 16.9392 5.36943 17.2907 5.30326C17.6421 5.23708 17.9664 5.0631 18.2217 4.80375L18.2867 4.73625C18.4879 4.52705 18.7269 4.3611 18.9899 4.24787C19.2529 4.13464 19.5349 4.07636 19.8196 4.07636C20.1044 4.07636 20.3863 4.13464 20.6493 4.24787C20.9124 4.3611 21.1513 4.52705 21.3525 4.73625C21.554 4.94521 21.7138 5.19336 21.8228 5.46651C21.9319 5.73966 21.988 6.03244 21.988 6.32812C21.988 6.62381 21.9319 6.91659 21.8228 7.18974C21.7138 7.46289 21.554 7.71104 21.3525 7.92L21.2875 7.9875C21.0378 8.25264 20.8703 8.58939 20.8065 8.95434C20.7428 9.31928 20.7858 9.69568 20.93 10.035V10.125C21.0674 10.4577 21.2954 10.7415 21.586 10.9414C21.8767 11.1413 22.2173 11.2486 22.5659 11.25H22.75C23.3247 11.25 23.8758 11.4871 24.2821 11.909C24.6884 12.331 24.9167 12.9033 24.9167 13.5C24.9167 14.0967 24.6884 14.669 24.2821 15.091C23.8758 15.5129 23.3247 15.75 22.75 15.75H22.6525C22.3039 15.7514 21.9633 15.8587 21.6727 16.0586C21.3821 16.2585 21.154 16.5423 21.0167 16.875V16.875Z" stroke="black" stroke-width="2" stroke-linecap="round" stroke-linejoin="round"/>
</g>
<defs>
<clipPath id="clip0_21_375">
<rect width="26" height="27" fill="white"/>
</clipPath>
</defs>
</svg>
