<svg width="26" height="27" viewBox="0 0 26 27" fill="none" xmlns="http://www.w3.org/2000/svg">
<path d="M13 24.75C18.983 24.75 23.8333 19.7132 23.8333 13.5C23.8333 7.2868 18.983 2.25 13 2.25C7.01687 2.25 2.16663 7.2868 2.16663 13.5C2.16663 19.7132 7.01687 24.75 13 24.75Z" stroke="black" stroke-width="2" stroke-linecap="round" stroke-linejoin="round"/>
<path d="M9.84753 10.125C10.1022 9.37316 10.6049 8.73915 11.2667 8.3353C11.9284 7.93146 12.7063 7.78384 13.4628 7.91858C14.2193 8.05333 14.9054 8.46175 15.3997 9.0715C15.894 9.68125 16.1645 10.453 16.1634 11.25C16.1634 13.5 12.9134 14.625 12.9134 14.625" stroke="black" stroke-width="2" stroke-linecap="round" stroke-linejoin="round"/>
<path d="M13 19.125H13.0113" stroke="black" stroke-width="2" stroke-linecap="round" stroke-linejoin="round"/>
</svg>
