<svg width="40" height="40" viewBox="0 0 40 40" fill="none" xmlns="http://www.w3.org/2000/svg">
<g clip-path="url(#clip0_274_415)">
<path d="M28.6165 39.9999C28.3972 40.0012 28.1797 39.9592 27.9767 39.8762C27.7736 39.7933 27.5889 39.6711 27.4332 39.5166L13.8165 25.9C13.0405 25.1259 12.4247 24.2063 12.0046 23.1938C11.5845 22.1814 11.3683 21.0961 11.3683 20C11.3683 18.9038 11.5845 17.8185 12.0046 16.8061C12.4247 15.7937 13.0405 14.8741 13.8165 14.1L27.4332 0.483316C27.5886 0.327919 27.7731 0.204651 27.9761 0.12055C28.1791 0.03645 28.3967 -0.00683594 28.6165 -0.00683594C28.8363 -0.00683594 29.0539 0.03645 29.2569 0.12055C29.46 0.204651 29.6444 0.327919 29.7998 0.483316C29.9552 0.638714 30.0785 0.823197 30.1626 1.02623C30.2467 1.22927 30.29 1.44688 30.29 1.66665C30.29 1.88641 30.2467 2.10403 30.1626 2.30706C30.0785 2.5101 29.9552 2.69458 29.7998 2.84998L16.1832 16.4666C15.2468 17.4041 14.7209 18.675 14.7209 20C14.7209 21.325 15.2468 22.5958 16.1832 23.5333L29.7998 37.1499C29.9561 37.3049 30.0801 37.4892 30.1647 37.6923C30.2493 37.8954 30.2928 38.1133 30.2928 38.3333C30.2928 38.5533 30.2493 38.7711 30.1647 38.9742C30.0801 39.1773 29.9561 39.3617 29.7998 39.5166C29.6441 39.6711 29.4594 39.7933 29.2564 39.8762C29.0533 39.9592 28.8359 40.0012 28.6165 39.9999Z" fill="black"/>
</g>
<defs>
<clipPath id="clip0_274_415">
<rect width="40" height="40" fill="white"/>
</clipPath>
</defs>
</svg>
